<svg width="1041" height="1066" viewBox="0 0 1041 1066" fill="none" xmlns="http://www.w3.org/2000/svg">
<path fill-rule="evenodd" clip-rule="evenodd" d="M977.297 284.498C989.197 284.975 1000.98 286.889 1012.33 290.192C1026.48 293.871 1039.39 300.792 1049.85 310.308C1059.29 318.823 1066.24 329.399 1070.04 341.052C1072.71 350.977 1073.41 361.263 1072.1 371.416C1070.16 379.649 1067.25 387.665 1063.45 395.328C1059.01 402.004 1052.76 407.499 1045.31 411.269C1035.52 415.028 1025.01 416.963 1014.4 416.963C1003.78 416.963 993.276 415.028 983.48 411.269C976.296 407.838 969.976 403.053 964.931 397.226C962.326 393.517 960.45 389.426 959.377 385.138C958.867 383.103 958.763 380.963 959.321 378.941C960.31 375.359 962.388 372.084 965.343 369.518C970.703 365.837 977.206 363.841 983.892 363.825C987.59 363.611 991.276 364.394 994.497 366.079C997.719 367.765 1000.34 370.279 1002.03 373.314C1004.47 377.253 1007.6 380.149 1010.06 380.92C1011.54 381.384 1013.04 380.513 1014.07 379.355C1014.65 378.701 1015.14 377.978 1015.52 377.202C1016.24 375.746 1016.56 374.151 1016.46 372.555C1016.46 368.759 1011.1 361.168 1004.91 355.095C996.671 347.125 990.075 344.847 977.709 344.847C965.343 344.847 959.16 347.504 948.03 358.132C938.55 367.241 934.015 374.832 934.015 382.803C934.319 390.423 936.281 397.909 939.786 404.817C944.966 412.812 951.507 419.988 959.16 426.072C973.942 436.077 989.669 444.842 1006.15 452.261C1024.29 460.611 1049.43 473.516 1061.8 480.728C1076.84 489.886 1091.04 500.169 1104.26 511.472C1116.25 521.821 1126.9 533.411 1136 546.011C1144.31 558.679 1151.34 572.019 1157.02 585.864C1164.03 603.324 1166.09 617.747 1166.5 648.491C1166.91 683.789 1165.68 690.621 1156.19 709.219C1150.54 721.036 1142.09 731.54 1131.46 739.963C1123.22 745.576 1114.38 750.409 1105.08 754.386C1097.66 757.423 1079.11 758.561 1057.68 757.802C1032.12 757.043 1017.69 754.386 1004.09 748.313C991.211 742.141 979.055 734.764 967.816 726.299C954.213 715.672 950.504 714.533 950.504 719.847C950.091 723.263 959.572 734.27 971.114 744.518C983.251 754.973 996.833 763.906 1011.51 771.086C1027.59 777.918 1037.89 779.437 1072.1 779.437C1106.32 779.437 1116.21 778.298 1131.05 771.086C1142.34 764.914 1153.09 757.934 1163.2 750.211C1173.66 740.447 1182.29 729.162 1188.76 716.81C1195.58 703.944 1198.73 692.374 1201.95 655.929C1203.01 643.865 1216.31 636.925 1226.68 643.177C1242.48 653.035 1257.37 664.08 1271.2 676.198C1285.63 689.461 1298.99 703.668 1311.18 718.708C1323.37 734.969 1334.12 752.104 1343.34 769.948C1351.82 787.134 1358.85 804.899 1364.36 823.085C1367.61 834.279 1369.81 845.707 1370.95 857.245C1370.95 863.698 1366.83 858.384 1356.53 839.406C1348.7 824.224 1340.04 810.56 1337.15 809.042C1333.44 806.765 1333.03 809.421 1335.09 819.29C1337.68 833.747 1339.47 848.315 1340.45 862.939C1342.64 883.272 1341.11 903.801 1335.92 923.667C1330.96 943.67 1324.49 963.329 1316.54 982.498C1309.54 998.06 1298.82 1020.83 1292.22 1032.98C1280.68 1053.85 1279.44 1054.61 1260.9 1056.89C1244.05 1058.52 1227.09 1058.78 1210.19 1057.65C1193.29 1056.51 1175.57 1053.85 1171.03 1051.96C1165.26 1048.92 1161.97 1042.09 1159.9 1027.67C1156.99 1013.38 1152.14 999.477 1145.48 986.294C1136.07 970.734 1124.57 956.324 1111.26 943.404C1098.49 930.499 1079.94 917.215 1067.98 912.281C1057.81 907.692 1047.18 904.007 1036.24 901.274C1027.59 899.755 1021.4 901.274 1012.33 908.485C1004.57 914.851 998.985 923.159 996.259 932.397C992.094 955.272 989.204 978.329 987.602 1001.48C985.129 1031.84 982.656 1056.89 982.244 1057.65C981.831 1058.41 973.999 1059.93 964.931 1062.2C952.031 1064.57 938.923 1065.84 925.771 1066C916.012 1066 901.375 1064.35 879.225 1059.36C867.831 1056.79 860.092 1046.33 860.478 1034.65L862.291 979.841C864.352 929.361 863.528 892.923 860.23 868.632C857.345 848.895 847.864 801.071 839.208 762.357C830.551 723.642 820.246 677.716 816.949 659.877C813.651 642.038 808.705 606.36 805.819 580.171C802.724 550.507 802.724 520.639 805.819 490.976C808.542 466.728 812.809 442.648 818.597 418.86C824.028 400.548 831.343 382.755 840.444 365.723C849.122 351.238 859.789 337.844 872.184 325.87C883.283 315.928 895.757 307.378 909.283 300.439C921.085 295.057 933.538 290.98 946.382 288.294C956.602 286.503 966.924 285.236 977.297 284.498ZM-nan -nanL937.313 516.785C937.6 523.615 940.356 530.161 945.145 535.383C949.749 539.394 955.723 541.809 962.045 542.215C966.931 542.092 971.754 541.218 976.317 539.634C977.805 539.117 979.221 538.396 980.463 537.425C984.449 534.309 987.371 530.171 988.839 525.515C990.436 519.027 989.713 512.237 986.778 506.158C984.18 501.455 979.972 497.692 974.83 495.434C973.743 494.957 972.593 494.645 971.427 494.42C969.194 493.99 966.947 493.624 964.689 493.324C962.123 492.983 959.503 493.095 957.03 493.86C953.403 494.981 949.957 496.564 946.794 498.567C939.786 503.121 937.313 508.056 937.313 516.785L-nan -nanZ" fill="#1B2C39"/>
<path fill-rule="evenodd" clip-rule="evenodd" d="M497.57 265.955C482.529 266.434 467.64 268.353 453.283 271.664C435.4 275.355 419.089 282.295 405.871 291.837C393.937 300.375 385.154 310.981 380.341 322.667C376.973 332.619 376.09 342.934 377.736 353.116C380.2 361.371 383.868 369.41 388.677 377.094C394.285 383.789 402.187 389.299 411.602 393.08C423.984 396.849 437.265 398.789 450.678 398.789C464.092 398.789 477.373 396.849 489.754 393.08C498.835 389.639 506.823 384.841 513.2 378.997C516.304 375.491 518.59 371.643 519.978 367.611C520.836 365.118 521.006 362.377 520.016 359.933C518.678 356.626 516.16 353.61 512.679 351.213C505.905 347.521 497.685 345.52 489.233 345.503C484.559 345.288 479.901 346.074 475.829 347.764C471.757 349.454 468.449 351.976 466.309 355.019C462.924 359.345 458.51 362.417 455.295 362.808C453.949 362.972 452.654 362.342 451.592 361.498C450.634 360.736 449.843 359.866 449.253 358.917C448.345 357.458 447.94 355.858 448.073 354.258C448.073 350.451 454.846 342.839 462.662 336.749C473.082 328.756 481.418 326.473 497.049 326.473C512.679 326.473 520.494 329.137 534.562 339.794C546.545 348.929 552.276 356.541 552.276 364.534C551.893 372.175 549.412 379.682 544.982 386.61C538.435 394.627 530.167 401.824 520.494 407.924C501.81 417.957 481.932 426.746 461.099 434.186C438.174 442.56 406.392 455.501 390.762 462.732C371.746 471.916 353.797 482.228 337.097 493.562C321.943 503.94 308.481 515.562 296.979 528.198C286.476 540.901 277.582 554.278 270.407 568.162C261.55 585.67 258.945 600.134 258.424 630.963C257.903 666.36 259.466 673.212 271.449 691.862C278.595 703.711 289.275 714.245 302.71 722.691C313.13 728.32 324.302 733.166 336.055 737.155C345.433 740.199 368.879 741.341 395.972 740.58C428.275 739.819 446.51 737.155 463.704 731.065C479.983 724.875 495.347 717.478 509.553 708.989C524.326 699.832 529.867 697.7 531.135 700.661C531.63 701.818 531.546 703.196 530.979 704.319C528.647 708.934 517.988 718.38 505.385 727.259C490.045 737.743 472.876 746.701 454.325 753.902C434.006 760.753 420.98 762.275 377.736 762.275C334.492 762.275 321.987 761.133 303.231 753.902C288.955 747.712 275.367 740.712 262.592 732.968C249.376 723.177 238.462 711.86 230.289 699.474C222.089 687.195 218.084 676.094 214.21 643.548C212.392 628.273 196.233 618.999 182.355 625.635C162.381 635.521 143.561 646.596 126.086 658.748C107.853 672.048 90.9625 686.295 75.5472 701.377C60.1425 717.683 46.5525 734.866 34.908 752.76C24.1799 769.994 15.2961 787.809 8.33636 806.046C4.22919 817.27 1.44025 828.73 0.00012207 840.301C0.00012207 846.771 5.21027 841.443 18.2357 822.412C28.1349 807.187 39.0762 793.485 42.7233 791.963C47.4124 789.679 47.9334 792.344 45.3283 802.239C42.062 816.737 39.8014 831.346 38.5552 846.01C35.785 866.401 37.7224 886.986 44.2864 906.908C50.5519 926.967 58.7344 946.68 68.774 965.903C77.6312 981.508 91.1777 1004.35 99.514 1016.52C114.102 1037.46 115.665 1038.22 139.111 1040.5C160.4 1042.14 181.846 1042.4 203.196 1041.26C224.558 1040.12 246.961 1037.46 252.692 1035.56C259.987 1032.51 264.155 1025.66 266.76 1011.2C270.45 996.866 276.576 982.93 284.995 969.709C296.887 954.106 311.415 939.656 328.24 926.7C344.391 913.759 367.837 900.438 382.946 895.49C395.809 890.889 409.242 887.193 423.064 884.452C434.006 882.93 441.821 884.452 453.283 891.684C463.097 898.067 470.157 906.399 473.603 915.662C478.867 938.601 482.519 961.722 484.544 984.934C487.67 1015.38 490.796 1040.5 491.317 1041.26C491.838 1042.03 501.738 1043.55 513.2 1045.83C529.505 1048.2 546.073 1049.48 562.697 1049.64C575.566 1049.64 595.146 1047.83 625.219 1042.31C637.26 1040.1 645.685 1029.24 645.175 1017.01L642.933 963.239C640.328 912.617 641.37 876.078 645.538 851.719C649.185 831.927 661.168 783.97 672.11 745.147C683.051 706.325 696.076 660.271 700.245 642.382C704.413 624.493 710.665 588.715 714.312 562.453C718.224 532.707 718.224 502.755 714.312 473.009C710.871 448.693 705.478 424.546 698.161 400.692C691.297 382.329 682.05 364.487 670.547 347.407C659.579 332.882 646.095 319.45 630.429 307.442C616.4 297.473 600.634 288.899 583.537 281.941C568.62 276.543 552.88 272.455 536.646 269.761C523.727 267.965 510.681 266.695 497.57 265.955ZM-nan -nanL548.108 498.891C547.745 505.739 544.261 512.304 538.209 517.541C532.389 521.562 524.839 523.984 516.847 524.392C510.368 524.262 503.975 523.303 497.959 521.563C496.654 521.185 495.389 520.672 494.218 519.982C488.847 516.815 484.915 512.513 482.981 507.645C480.962 501.138 481.876 494.33 485.586 488.233C489.216 483.021 495.332 478.959 502.78 476.815C506.923 476.129 511.107 475.584 515.319 475.181C517.37 474.985 519.443 475.064 521.457 475.501C526.676 476.635 531.627 478.362 536.125 480.621C544.982 485.189 548.108 490.137 548.108 498.891L-nan -nanZ" fill="#1B2C39" />
<path d="M763.966 -32.9999C763.892 -32.9202 736.906 15.1003 703.98 73.7411C671.073 132.362 644.198 180.402 644.254 180.482C644.328 180.562 671.296 197.718 764.004 256.558L823.953 218.54C856.915 197.638 883.883 180.442 883.846 180.323C883.827 180.203 856.878 132.123 823.953 73.4821C791.046 14.8413 764.041 -33.0796 763.966 -32.9999ZM883.549 204.831C883.382 204.911 856.488 221.967 823.767 242.709C791.046 263.472 764.171 280.448 764.059 280.468C763.929 280.468 737.036 263.492 704.296 242.729C671.537 221.967 644.588 204.911 644.384 204.811C644.087 204.672 644.05 204.712 644.198 204.99C644.31 205.17 671.277 245.977 704.147 295.691C737.017 345.386 763.948 386.074 764.004 386.074C764.059 386.074 790.99 345.406 823.878 295.672C856.748 245.937 883.697 205.13 883.753 204.971C883.827 204.771 883.772 204.731 883.549 204.831Z" fill="#1B2C39"/>
</svg>
